<svg xmlns="http://www.w3.org/2000/svg" xmlns:xlink="http://www.w3.org/1999/xlink" viewBox="0 0 496.72 496.72"><defs><style>.cls-1{fill:url(#Degradado_sin_nombre_180);}</style><linearGradient id="Degradado_sin_nombre_180" x1="82.57" y1="48.31" x2="388.96" y2="418.01" gradientUnits="userSpaceOnUse"><stop offset="0" stop-color="#9157ff"/><stop offset="0.55" stop-color="#c777ff"/><stop offset="0.72" stop-color="#af69ff"/><stop offset="0.97" stop-color="#9157ff"/></linearGradient></defs><g id="Objects"><path class="cls-1" d="M488.17,248.36a73.14,73.14,0,0,0-64.5-72.62A73.12,73.12,0,0,0,321,73.05a73.13,73.13,0,0,0-145.24,0A73.12,73.12,0,0,0,73.05,175.74a73.13,73.13,0,0,0,0,145.24A73.12,73.12,0,0,0,175.74,423.67a73.13,73.13,0,0,0,145.24,0A73.13,73.13,0,0,0,423.68,321,73.14,73.14,0,0,0,488.17,248.36Z"/></g></svg>